<?xml version="1.0" encoding="UTF-8"?> <svg xmlns="http://www.w3.org/2000/svg" xmlns:xlink="http://www.w3.org/1999/xlink" width="326.629" height="277.938" viewBox="0 0 326.629 277.938"><defs><clipPath id="clip-path"><rect id="Rectangle_6337" data-name="Rectangle 6337" width="324.558" height="275.048" transform="translate(0 -6)" fill="none"></rect></clipPath><clipPath id="clip-path-2"><rect id="Rectangle_6335" data-name="Rectangle 6335" width="47.556" height="8.376" fill="none"></rect></clipPath><clipPath id="clip-path-3"><path id="Path_12226" data-name="Path 12226" d="M1193.893,765.962c-3.68,26.463-4.723,46.966-4.71,51.414h2.351c.9-3.558,6.022-14.089,6.408-23.038,3.149-8.939,8.536-19.087,7.943-28.375Z" transform="translate(-1189.182 -765.962)" fill="none"></path></clipPath><clipPath id="clip-path-4"><rect id="Rectangle_6339" data-name="Rectangle 6339" width="324.558" height="269.048" fill="none"></rect></clipPath><clipPath id="clip-path-5"><path id="Path_12234" data-name="Path 12234" d="M1202.462,647.707c-5.569.066-5.25,16.547-5.337,17.66-1.134.8-11.537,6.81-14.08,8a9.913,9.913,0,0,0,1.264,1.936c2.112-.023,14.617-3.932,17.486-6.267s4.079-12.3,4.113-14.186c.058-3.277-.306-7.144-3.4-7.144h-.045" transform="translate(-1183.045 -647.707)" fill="none"></path></clipPath><clipPath id="clip-path-7"><path id="Path_12238" data-name="Path 12238" d="M1010.6,810.452a17.655,17.655,0,0,1-33.77,7.212,17.656,17.656,0,1,0,32.977-12.438,17.6,17.6,0,0,1,.793,5.227" transform="translate(-976.834 -805.225)" fill="none"></path></clipPath><clipPath id="clip-path-8"><path id="Path_12239" data-name="Path 12239" d="M1004.291,752.7l10.613,15.4,14.155-12.215a18.689,18.689,0,0,0-24.768-3.181" transform="translate(-1004.291 -749.39)" fill="none"></path></clipPath><clipPath id="clip-path-10"><path id="Path_12261" data-name="Path 12261" d="M591.313,539.829V549.7H670.2V530.613c-11.556,6.954-11.644-8.407-21.593-8.407-7.191,0-12.588,13.434-18.966,13.434-9.246,0-9.167-19.2-17.307-19.2-8.061,0-14.406,10.893-21.021,23.392" transform="translate(-591.313 -516.437)" fill="none"></path></clipPath><clipPath id="clip-path-11"><path id="Path_12262" data-name="Path 12262" d="M591.313,574.449v7.418H670.2V564.354c-11.556,8.731-16.456-2.525-24.2-2.525-7.623,0-10.985,11.042-20.468,11.042-8.93,0-11.022-14.266-18.452-14.266-5.571,0-10.313,6.633-15.766,15.845" transform="translate(-591.313 -558.604)" fill="none"></path></clipPath><clipPath id="clip-path-13"><rect id="Rectangle_6390" data-name="Rectangle 6390" width="10.016" height="49.487" fill="none"></rect></clipPath><clipPath id="clip-path-14"><path id="Path_12305" data-name="Path 12305" d="M247.715,734.336a46.792,46.792,0,0,0,7.427-1.222c2.152-18.152-5.891-28.673-7.17-31.561.179-1.868,2.634-10.758,3.276-16.7-2.385,10.348-5.448,13.368-5.741,16.544-.4,4.343,6.064,13.057,4.877,24.606-.408,3.964-1.931,7.6-2.669,8.337" transform="translate(-245.489 -684.849)" fill="none"></path></clipPath><linearGradient id="linear-gradient" x1="-4.744" y1="2.156" x2="-4.725" y2="2.156" gradientUnits="objectBoundingBox"><stop offset="0" stop-color="#e8ecf7"></stop><stop offset="0.455" stop-color="#eff2f9"></stop><stop offset="1" stop-color="#fff"></stop></linearGradient><clipPath id="clip-path-16"><rect id="Rectangle_6395" data-name="Rectangle 6395" width="2.231" height="17.308" fill="none"></rect></clipPath><clipPath id="clip-path-17"><path id="Path_12312" data-name="Path 12312" d="M824.57,95.565c-.446-1.155-1.165-1.683-1.3,1.341-.112,2.552.046,10.88.413,15.055a9.551,9.551,0,0,0,1.783-.421s-1.011-11.232-.9-15.975" transform="translate(-823.236 -94.653)" fill="none"></path></clipPath><linearGradient id="linear-gradient-2" x1="-84.531" y1="13.684" x2="-84.428" y2="13.684" gradientUnits="objectBoundingBox"><stop offset="0" stop-color="#dae0f5"></stop><stop offset="0.492" stop-color="#dae0f5"></stop><stop offset="1" stop-color="#fff"></stop></linearGradient><clipPath id="clip-path-18"><rect id="Rectangle_6497" data-name="Rectangle 6497" width="8" height="8" transform="translate(-0.339 -0.397)" fill="#fff" stroke="#707070" stroke-width="1"></rect></clipPath></defs><g id="online-advertising-header-mobile" transform="translate(-937.93 -205.5)"><g id="Group_6535" data-name="Group 6535" transform="translate(-70.301 98.901)" opacity="0.74"><path id="Path_12510" data-name="Path 12510" d="M5.573,0A5.573,5.573,0,1,1,0,5.573,5.573,5.573,0,0,1,5.573,0Z" transform="translate(1008.23 225.757)" fill="#362e94"></path><g id="_x31_0.Linkedin" transform="translate(1011.104 228.63)"><path id="Path_12516" data-name="Path 12516" d="M41.789,38.991V37.014c0-.972-.209-1.714-1.343-1.714a1.172,1.172,0,0,0-1.059.58h-.013v-.493H38.3v3.6h1.12V37.2c0-.472.088-.924.668-.924s.58.533.58.951v1.754h1.12Z" transform="translate(-36.39 -33.593)" fill="#807ecd"></path><path id="Path_12517" data-name="Path 12517" d="M11.3,36.6h1.12v3.6H11.3Z" transform="translate(-11.212 -34.805)" fill="#807ecd"></path><path id="Path_12518" data-name="Path 12518" d="M10.648,10a.651.651,0,1,0,.648.648A.648.648,0,0,0,10.648,10Z" transform="translate(-10 -10)" fill="#807ecd"></path></g></g><g id="Group_6387" data-name="Group 6387" transform="translate(940 213.501)"><path id="Path_12530" data-name="Path 12530" d="M154.57,1026.354c0-1.819,31.516-3.294,70.392-3.294s70.393,1.474,70.393,3.294-31.516,3.294-70.393,3.294-70.392-1.475-70.392-3.294" transform="translate(-89.619 -804.631)" fill="rgba(54,46,148,0.04)"></path><g id="Group_6386" data-name="Group 6386" clip-path="url(#clip-path)"><rect id="Rectangle_6333" data-name="Rectangle 6333" width="47.556" height="29.423" transform="translate(109.324 186.33)" fill="#ced3f8"></rect><g id="Group_6385" data-name="Group 6385" transform="translate(109.324 186.33)" style="mix-blend-mode: multiply;isolation: isolate"><g id="Group_6384" data-name="Group 6384"><g id="Group_6383" data-name="Group 6383" clip-path="url(#clip-path-2)"><rect id="Rectangle_6334" data-name="Rectangle 6334" width="47.556" height="8.376" fill="#dae0f5"></rect></g></g></g><path id="Path_12220" data-name="Path 12220" d="M367.61,913.132v2.823h91.9v-2.823a2.925,2.925,0,0,0-2.925-2.925H370.535a2.925,2.925,0,0,0-2.925,2.925" transform="translate(-280.457 -694.415)" fill="#ced3f8"></path><path id="Path_12221" data-name="Path 12221" d="M337.1,705.336H134.834v13.035a6.075,6.075,0,0,0,6.075,6.075H331.029a6.075,6.075,0,0,0,6.075-6.075Z" transform="translate(-102.867 -538.115)" fill="#ced3f8"></path><path id="Path_12222" data-name="Path 12222" d="M944.573,738.942a2.081,2.081,0,1,1,2.08,2.081,2.08,2.08,0,0,1-2.08-2.081" transform="translate(-720.633 -562.166)" fill="#bbc0e6"></path><path id="Path_12223" data-name="Path 12223" d="M908.508,738.942a2.081,2.081,0,1,1,2.081,2.081,2.081,2.081,0,0,1-2.081-2.081" transform="translate(-693.118 -562.166)" fill="#bbc0e6"></path><rect id="Rectangle_6336" data-name="Rectangle 6336" width="202.27" height="112.356" transform="translate(31.967 54.865)" fill="#f7f7ff"></rect><path id="Path_12224" data-name="Path 12224" d="M331.025,188.743H140.9a6.075,6.075,0,0,0-6.075,6.075v116.4h5.187V198.861h191.9V311.217H337.1v-116.4a6.075,6.075,0,0,0-6.075-6.075" transform="translate(-102.864 -143.996)" fill="#ced3f8"></path><path id="Path_12225" data-name="Path 12225" d="M1123.847,991.548c0-1.915,13.01-3.468,29.058-3.468s29.058,1.553,29.058,3.468-13.01,3.468-29.058,3.468-29.058-1.553-29.058-3.468" transform="translate(-857.405 -753.826)" fill="#e9edf7"></path><path id="Path_12416" data-name="Path 12416" d="M105.623,763.448c0-2.531,41.641-4.583,93.008-4.583s93.008,2.052,93.008,4.583S250,768.03,198.631,768.03s-93.008-2.052-93.008-4.583" transform="translate(-103.593 -263.64)" fill="rgba(0,0,0,0.06)"></path><g id="Group_7013" data-name="Group 7013" transform="translate(-13627.953 -4229.349)"><path id="Path_13813" data-name="Path 13813" d="M1258.354,710.25a4.145,4.145,0,0,0,0-.871l2.253.429a4.58,4.58,0,0,1,0,1.533c-.6.107-1.3-.6-2.256-1.092" transform="translate(12608.118 3585.615)" fill="#f0ccc0"></path><path id="Path_13814" data-name="Path 13814" d="M1248.663,716.476c.954.494,1.661,1.2,2.256,1.092.253.269,4.283,2.65,4.666,3.035s.235.86-.242.769c-.7-.133-6.394-1.48-6.394-1.48-.141.1-.26.212-.26.212l-1.313-.25a3.624,3.624,0,0,1,1.286-3.378" transform="translate(12617.81 3579.389)" fill="#423eaf"></path><path id="Path_13815" data-name="Path 13815" d="M1068.013,460.53c1.987,3.765.116,17.577-.885,24.086l-2.253-.429c-.747-5.466-2.678-10.81-3.534-21.831,0,0-13.614,3.507-19.052-1.407a14.341,14.341,0,0,1-4.481-8.261h9.709s18.509,4.078,20.5,7.843" transform="translate(12801.601 3810.807)" fill="#362e94"></path><path id="Path_13816" data-name="Path 13816" d="M1066.068,171.515c-.089.55-.932,6.225-1.779,6.394s-2.583-1.27-3.007-.339a10.525,10.525,0,0,0-.635,2.2,31.708,31.708,0,0,1-3.981-1.694,9.217,9.217,0,0,0,1.27-4.7c0-2.329-.069-6.044,5.124-5.124,3.345.593,3.236,1.852,3.007,3.261" transform="translate(12785.056 4060.462)" fill="#f0ccc0"></path><path id="Path_13817" data-name="Path 13817" d="M1070.221,162.963c.548.231.876.083,1.49-.531s2.463-2.689-1.447-3.07-6.959-1.567-8.272,1.313a6.27,6.27,0,0,0,0,5.675c.3.3.089-4.478,1.249-4.319.7.1-.313,4.266-.36,6.41.381.508,1.429.905,3.081,1.54s2.166,1.1,2.759-.578l.593-1.681c-2.3-.695-1.45.512-2.879,0s-1.715-.731-1.842-1.175.538-4.986,1.05-5.05a21.068,21.068,0,0,1,4.578,1.463" transform="translate(12780.959 4068.635)" fill="#362e94"></path><path id="Path_13818" data-name="Path 13818" d="M1183.4,720.208v-.795h2.172a5.358,5.358,0,0,0,.25,1.445c-.565.217-1.391-.343-2.421-.65" transform="translate(12673.874 3576.812)" fill="#f0ccc0"></path><path id="Path_13819" data-name="Path 13819" d="M1177.321,725.89c1.03.307,1.856.867,2.421.65.3.217,4.7,1.8,5.152,2.108s.392.8-.094.8c-.71,0-6.558-.257-6.558-.257-.119.129-.215.257-.215.257h-1.336a3.624,3.624,0,0,1,.631-3.559" transform="translate(12679.953 3571.13)" fill="#423eaf"></path><path id="Path_13820" data-name="Path 13820" d="M1041.8,460.53c1.987,3.765-5.253,21.228-6.508,24.888h-2.172c-1.046-5.647-.79-17.881,2.138-21.087,0,0-8.312.034-18.04-.853-3.437-.314-5.118-5.686-5.118-10.79h12.864s14.849,4.078,16.836,7.843" transform="translate(12824.152 3810.807)" fill="#423eaf"></path><path id="Path_13821" data-name="Path 13821" d="M1012.394,249.342s2.442,1.143,3.981,1.694c5.675,6.855,3.415,20.14,3.415,23.259h-12.864c-.7-3.476-.639-7.537-.719-12.275-.152-8.99,3.22-11.571,6.188-12.678" transform="translate(12829.329 3989.199)" fill="#6b67e9"></path><path id="Path_13822" data-name="Path 13822" d="M1141.5,452.07l13.944,4.336a.506.506,0,0,0,.633-.332l.186-.6-14.909-4.636-.186.6a.505.505,0,0,0,.333.633" transform="translate(12710.946 3812.427)" fill="#bbc0e6"></path><path id="Path_13823" data-name="Path 13823" d="M1265.541,401.02l9-11.5a.505.505,0,0,0-.086-.709l-.493-.386-9.623,12.3.493.386a.505.505,0,0,0,.709-.087" transform="translate(12602.867 3867.184)" fill="#bbc0e6"></path><rect id="Rectangle_6905" data-name="Rectangle 6905" width="0.209" height="0.941" transform="translate(13865.407 4267.345) rotate(-72.729)" fill="#807dfb"></rect><rect id="Rectangle_6906" data-name="Rectangle 6906" width="0.209" height="0.941" transform="translate(13863.934 4266.887) rotate(-72.729)" fill="#807dfb"></rect><rect id="Rectangle_6907" data-name="Rectangle 6907" width="0.209" height="0.941" transform="translate(13862.461 4266.429) rotate(-72.72)" fill="#807dfb"></rect><rect id="Rectangle_6908" data-name="Rectangle 6908" width="0.209" height="0.941" transform="translate(13860.988 4265.971) rotate(-72.727)" fill="#807dfb"></rect><rect id="Rectangle_6909" data-name="Rectangle 6909" width="0.209" height="0.941" transform="translate(13859.516 4265.513) rotate(-72.727)" fill="#807dfb"></rect><rect id="Rectangle_6910" data-name="Rectangle 6910" width="0.209" height="0.941" transform="translate(13858.042 4265.055) rotate(-72.727)" fill="#807dfb"></rect><path id="Path_13824" data-name="Path 13824" d="M1004.8,268.244c-1.358-.561-4.306.445-5.287,5.2-.771,3.742-1.763,13.541.253,13.738s19.825,3.014,19.825,3.014c.1-.4.4-1.811.4-1.811-1.56-.252-15.5-5.936-15.9-6.188.553-.453,6.453-11.583.7-13.958" transform="translate(12836.022 3972.739)" fill="#807dfb"></path><path id="Path_13825" data-name="Path 13825" d="M1170.109,436.322c.18-.8.329-1.489.329-1.489a21.185,21.185,0,0,1,3.612,1.009c.8.528,1.934,2.038,1.758,2.289-.068.1-.417-.127-.822-.439.319.849.521,1.651.244,1.574-.323-.09-.735-.738-1.1-1.3.087.443.122.819-.182.815-.2,0-.742-1.011-.877-1.616-.491.142-1.25.208-2.962-.838" transform="translate(12685.534 3826.47)" fill="#f0ccc0"></path></g></g></g><g id="Group_6389" data-name="Group 6389" transform="translate(1221.932 395.095)"><g id="Group_6388" data-name="Group 6388" clip-path="url(#clip-path-3)"><rect id="Rectangle_6338" data-name="Rectangle 6338" width="17.307" height="51.414" transform="translate(-0.012)" fill="#423eaf"></rect></g></g><g id="Group_6391" data-name="Group 6391" transform="translate(940 213.501)"><g id="Group_6390" data-name="Group 6390" clip-path="url(#clip-path-4)"><path id="Path_12227" data-name="Path 12227" d="M1190.667,983.685v-.861h-2.351a5.82,5.82,0,0,1-.27,1.565c.611.235,1.506-.372,2.621-.7" transform="translate(-906.383 -749.816)" fill="#f0ccc0"></path><path id="Path_12228" data-name="Path 12228" d="M1171.638,986.454c-1.115.332-2.01.939-2.621.7-.324.235-5.093,1.95-5.578,2.282s-.424.867.1.867c.769,0,7.1-.279,7.1-.279.129.139.233.279.233.279h1.447a3.923,3.923,0,0,0-.683-3.854" transform="translate(-887.354 -752.586)" fill="#20196f"></path><path id="Path_12229" data-name="Path 12229" d="M1246.7,760.377c2.087,9.07.857,19.08.468,25.192,4.258,8.7,4.92,21.515,5.948,25.038l-2.027,1.192c-2.266-3.827-15.575-22.772-16.224-49.482l11.834-1.94" transform="translate(-942.103 -580.107)" fill="#5652cc"></path><path id="Path_12230" data-name="Path 12230" d="M1305.759,972.985l-.436-.742-2.027,1.192a5.818,5.818,0,0,1,.561,1.485c.646-.108,1.11-1.084,1.9-1.936" transform="translate(-994.31 -741.744)" fill="#f0ccc0"></path><path id="Path_12231" data-name="Path 12231" d="M1290.545,975.372c-.793.852-1.256,1.828-1.9,1.936-.082.187-.964,1.291-1.842,2.4-1.372.53-2.852,1.1-3.111,1.279-.5.34-.424.867.1.867h3.225c1.792-1.148,4.482-2.895,4.482-2.895.182.055.342.122.342.122l1.247-.734a3.924,3.924,0,0,0-2.543-2.975" transform="translate(-979.096 -744.131)" fill="#20196f"></path><path id="Path_12232" data-name="Path 12232" d="M1204.718,669.335c3.736.534,16.189.019,20.37-2.488-.444-2.582-3.024-15.3-3.024-20.55a9.245,9.245,0,0,0-4.626-8.45c-1.69-.178-7.02,2.288-8.746,6.238-1.476,3.377-4.079,12.035-3.974,25.251" transform="translate(-919.101 -486.619)" fill="#9f9cff"></path><path id="Path_12233" data-name="Path 12233" d="M1168.773,758.621c-.083-1.044-.153-1.793.762-1.946a15.038,15.038,0,0,0,2.587-.826c.671-.232,2.5.957,1.264,1.936a3.987,3.987,0,0,1-3.187.836c.167.337.542,1.215-.4,1.292s-.963-.484-1.026-1.292" transform="translate(-891.645 -576.63)" fill="#f8d8d0"></path></g></g><g id="Group_6393" data-name="Group 6393" transform="translate(1220.477 367.059)"><g id="Group_6392" data-name="Group 6392" clip-path="url(#clip-path-5)"><path id="Path_12508" data-name="Path 12508" d="M0,0H35.87V35.366H0Z" transform="matrix(0.651, -0.759, 0.759, 0.651, -13.639, 15.894)" fill="#807dfb"></path></g></g><g id="Group_6395" data-name="Group 6395" transform="translate(940 213.501)"><g id="Group_6394" data-name="Group 6394" clip-path="url(#clip-path-4)"><path id="Path_12235" data-name="Path 12235" d="M1235.126,598.423a22.887,22.887,0,0,0,.052,4.226c-.431,1.165-2.11,1.938-4.852,1.89a2.856,2.856,0,0,0,.771-3.046c-.534-1.034-1.583.325-2.346-1.334-.89-1.935-1.113-5.728-.189-6.771a4.284,4.284,0,0,1,5.8-.934c2.219,1.345.986,4.317.759,5.97" transform="translate(-936.841 -451.422)" fill="#f8d8d0"></path><path id="Path_12236" data-name="Path 12236" d="M1227.1,589.786c-.623,0-.281-1.628-.734-2.024-.534-.467-2.338-.758-4.093-.59s-2.817-2.134-1.683-3.068,2.136.389,2.974.122c.978-.312.823-1.5,2.268-1.357,1.335.133.711,1.369,1.557,1.6.872.24,2.175-.9,3.224.484.778,1.028-.422,1.606-.311,2.741.069.708,1.8,2.821-.111,3.679s-1.445-1.077-1.334-1.877-.245-1.334-.645-1.357-.222,1.646-1.112,1.646" transform="translate(-930.856 -444.674)" fill="#362e94"></path><path id="Path_12237" data-name="Path 12237" d="M991.2,788.963l-10.019-14.535a17.656,17.656,0,1,0,25.748,22.564,17.267,17.267,0,0,0,1.927-8.029,17.581,17.581,0,0,0-4.293-11.532Z" transform="translate(-742.733 -590.827)" fill="#706dc9"></path></g></g><g id="Group_6397" data-name="Group 6397" transform="translate(1171.588 404.403)"><g id="Group_6396" data-name="Group 6396" clip-path="url(#clip-path-7)"><rect id="Rectangle_6342" data-name="Rectangle 6342" width="34.53" height="24.889" transform="translate(0)" fill="#5c5aa6"></rect></g></g><g id="Group_6399" data-name="Group 6399" transform="translate(1178.098 391.166)"><g id="Group_6398" data-name="Group 6398" clip-path="url(#clip-path-8)"><rect id="Rectangle_6343" data-name="Rectangle 6343" width="24.768" height="18.701" fill="#d7dcf8"></rect></g></g><g id="Group_6401" data-name="Group 6401" transform="translate(940 213.501)"><g id="Group_6400" data-name="Group 6400" clip-path="url(#clip-path-4)"><path id="Path_12240" data-name="Path 12240" d="M941.225,969.956a3.451,3.451,0,1,1,3.451,3.451,3.451,3.451,0,0,1-3.451-3.451" transform="translate(-718.079 -737.366)" fill="#362e94"></path><path id="Path_12241" data-name="Path 12241" d="M946.039,973.629a2.309,2.309,0,1,1,2.309,2.309,2.309,2.309,0,0,1-2.309-2.309" transform="translate(-721.752 -741.04)" fill="#fff"></path><rect id="Rectangle_6344" data-name="Rectangle 6344" width="44.011" height="0.61" transform="translate(221.449 228.097)" fill="#bac3f1"></rect><path id="Path_12242" data-name="Path 12242" d="M936.97,964.684c.319.513,3.554,5.693,5.019,4.755,1.375-.881-.665-4.755-.665-4.755Z" transform="translate(-714.833 -735.977)" fill="#bac3f1"></path><path id="Path_12243" data-name="Path 12243" d="M931.925,923.111a.665.665,0,0,1,0-1.331h42.625v-2.712a20.167,20.167,0,0,0-3.95-5.169c-.943-.085-14.08-1.111-19.738-1.553l-.336-.026a.666.666,0,0,1-.611-.715.659.659,0,0,1,.66-.614l.056,0c.192.015,19.324,1.506,20.159,1.59.963.1,5.091,5.054,5.091,6.485v3.377a.666.666,0,0,1-.665.665Z" transform="translate(-710.476 -695.014)" fill="#bac3f1"></path><path id="Path_12244" data-name="Path 12244" d="M954.106,979.784a.4.4,0,1,1,.4.4.4.4,0,0,1-.4-.4" transform="translate(-727.906 -747.194)" fill="#362e94"></path><path id="Path_12245" data-name="Path 12245" d="M1102.559,969.956a3.451,3.451,0,1,1,3.451,3.451,3.451,3.451,0,0,1-3.451-3.451" transform="translate(-841.164 -737.366)" fill="#362e94"></path><path id="Path_12246" data-name="Path 12246" d="M1107.374,973.629a2.309,2.309,0,1,1,2.309,2.309,2.309,2.309,0,0,1-2.309-2.309" transform="translate(-844.837 -741.04)" fill="#fff"></path><path id="Path_12247" data-name="Path 12247" d="M1098.305,964.684c.319.513,3.554,5.693,5.019,4.755,1.375-.881-.666-4.755-.666-4.755Z" transform="translate(-837.918 -735.977)" fill="#bac3f1"></path><path id="Path_12248" data-name="Path 12248" d="M1115.441,979.784a.4.4,0,1,1,.4.4.4.4,0,0,1-.4-.4" transform="translate(-850.992 -747.194)" fill="#362e94"></path><path id="Path_12249" data-name="Path 12249" d="M962.3,809.347l-.052,0-39.289-3.022a.665.665,0,0,1-.606-.558l-2.782-17.422a.665.665,0,0,1,.559-.763l52.36-7.872a6.909,6.909,0,0,1,3.288-4.052.665.665,0,0,1,.7,1.134,5.578,5.578,0,0,0-2.753,3.427c-.025.069-.061.169-.108.3,0,.014-.009.028-.015.042-1.316,3.582-10.279,27.311-10.676,28.361a.665.665,0,0,1-.622.43m-38.715-4.311,38.268,2.944c1.2-3.17,8.117-21.494,10.112-26.847L920.994,788.8Z" transform="translate(-701.554 -591.688)" fill="#bac3f1"></path><path id="Path_12250" data-name="Path 12250" d="M945.809,843.19a.444.444,0,0,1-.441-.4l-1.839-18.59a.444.444,0,1,1,.883-.087l1.839,18.59a.444.444,0,0,1-.4.485l-.044,0" transform="translate(-719.835 -628.428)" fill="#bac3f1"></path><path id="Path_12251" data-name="Path 12251" d="M969.242,840.608a.443.443,0,0,1-.444-.444v-19.81a.444.444,0,1,1,.887,0v19.81a.443.443,0,0,1-.444.444" transform="translate(-739.115 -625.527)" fill="#bac3f1"></path><path id="Path_12252" data-name="Path 12252" d="M987.8,838.129h-.03a.444.444,0,0,1-.413-.473l1.428-21.025a.454.454,0,0,1,.472-.413.444.444,0,0,1,.413.473l-1.427,21.025a.444.444,0,0,1-.442.414" transform="translate(-753.276 -622.709)" fill="#bac3f1"></path><path id="Path_12253" data-name="Path 12253" d="M1005.8,835.608a.526.526,0,0,1-.061,0,.445.445,0,0,1-.38-.5l3.048-22.238a.444.444,0,1,1,.879.12l-3.048,22.238a.444.444,0,0,1-.439.383" transform="translate(-767.004 -619.86)" fill="#bac3f1"></path><path id="Path_12254" data-name="Path 12254" d="M1024.008,833.052a.443.443,0,0,1-.435-.531l4.693-23.467a.444.444,0,0,1,.87.174l-4.694,23.467a.443.443,0,0,1-.435.357" transform="translate(-780.897 -616.972)" fill="#bac3f1"></path><path id="Path_12255" data-name="Path 12255" d="M1042.7,830.679a.443.443,0,0,1-.432-.547l5.879-24.652a.444.444,0,0,1,.863.206l-5.879,24.652a.443.443,0,0,1-.431.34" transform="translate(-795.156 -614.258)" fill="#bac3f1"></path><path id="Path_12256" data-name="Path 12256" d="M1060.012,828.153a.436.436,0,0,1-.126-.018.443.443,0,0,1-.3-.551l7.644-25.85a.444.444,0,1,1,.851.251l-7.644,25.85a.444.444,0,0,1-.426.318" transform="translate(-808.366 -611.416)" fill="#bac3f1"></path><path id="Path_12257" data-name="Path 12257" d="M1078.525,825.71a.454.454,0,0,1-.14-.023.444.444,0,0,1-.281-.561l9.009-27.052a.444.444,0,1,1,.842.281l-9.009,27.052a.444.444,0,0,1-.421.3" transform="translate(-822.489 -608.635)" fill="#bac3f1"></path><path id="Path_12258" data-name="Path 12258" d="M925.31,834.572a.444.444,0,0,1-.058-.883l48.743-6.474a.444.444,0,1,1,.117.88l-48.742,6.474a.454.454,0,0,1-.059,0" transform="translate(-705.598 -631.097)" fill="#bac3f1"></path><path id="Path_12259" data-name="Path 12259" d="M928.656,875.477a.444.444,0,0,1,0-.887l43.741-.271h0a.444.444,0,0,1,0,.887l-43.741.272Z" transform="translate(-708.151 -667.035)" fill="#bac3f1"></path><path id="Path_12260" data-name="Path 12260" d="M1159.39,763.294,1155.971,765a1.513,1.513,0,0,0,1.351,2.708l3.419-1.706a1.513,1.513,0,0,0-1.351-2.708" transform="translate(-881.273 -582.211)" fill="#706dc9"></path><rect id="Rectangle_6345" data-name="Rectangle 6345" width="90.259" height="50.488" transform="translate(134.998 58.658)" fill="#fff"></rect><rect id="Rectangle_6346" data-name="Rectangle 6346" width="90.259" height="50.488" transform="translate(40.945 58.658)" fill="#fff"></rect><rect id="Rectangle_6347" data-name="Rectangle 6347" width="90.259" height="50.488" transform="translate(134.997 112.94)" fill="#fff"></rect><rect id="Rectangle_6348" data-name="Rectangle 6348" width="90.259" height="50.488" transform="translate(40.945 112.94)" fill="#fff"></rect><rect id="Rectangle_6349" data-name="Rectangle 6349" width="6.296" height="34.984" transform="translate(141.178 70.999)" fill="#706dc9"></rect><rect id="Rectangle_6350" data-name="Rectangle 6350" width="6.296" height="9.483" transform="translate(141.178 70.999)" fill="#d8d7fa"></rect><rect id="Rectangle_6351" data-name="Rectangle 6351" width="6.296" height="22.066" transform="translate(149.134 83.918)" fill="#706dc9"></rect><rect id="Rectangle_6352" data-name="Rectangle 6352" width="6.296" height="4.1" transform="translate(149.134 83.918)" fill="#9896df"></rect><rect id="Rectangle_6353" data-name="Rectangle 6353" width="6.296" height="16.269" transform="translate(157.09 89.715)" fill="#706dc9"></rect><rect id="Rectangle_6354" data-name="Rectangle 6354" width="6.296" height="2.771" transform="translate(157.09 89.715)" fill="#d8d7fa"></rect><rect id="Rectangle_6355" data-name="Rectangle 6355" width="6.296" height="26.27" transform="translate(165.045 79.714)" fill="#706dc9"></rect><rect id="Rectangle_6356" data-name="Rectangle 6356" width="6.296" height="8.377" transform="translate(165.045 79.714)" fill="#9896df"></rect><rect id="Rectangle_6357" data-name="Rectangle 6357" width="6.296" height="31.027" transform="translate(173.001 74.957)" fill="#706dc9"></rect><rect id="Rectangle_6358" data-name="Rectangle 6358" width="6.296" height="9.514" transform="translate(173.001 74.957)" fill="#d8d7fa"></rect><rect id="Rectangle_6359" data-name="Rectangle 6359" width="6.296" height="35.784" transform="translate(180.957 70.2)" fill="#706dc9"></rect><rect id="Rectangle_6360" data-name="Rectangle 6360" width="6.296" height="7.745" transform="translate(180.957 70.2)" fill="#9896df"></rect><rect id="Rectangle_6361" data-name="Rectangle 6361" width="6.296" height="37.755" transform="translate(188.912 68.229)" fill="#706dc9"></rect><rect id="Rectangle_6362" data-name="Rectangle 6362" width="6.296" height="6.728" transform="translate(188.912 68.229)" fill="#d8d7fa"></rect><rect id="Rectangle_6363" data-name="Rectangle 6363" width="6.296" height="24.852" transform="translate(196.868 81.132)" fill="#706dc9"></rect><rect id="Rectangle_6364" data-name="Rectangle 6364" width="6.296" height="9.968" transform="translate(196.868 81.132)" fill="#d8d7fa"></rect><rect id="Rectangle_6365" data-name="Rectangle 6365" width="6.296" height="33.013" transform="translate(204.824 72.971)" fill="#706dc9"></rect><path id="Path_12507" data-name="Path 12507" d="M0,0H6.3V9.716H0Z" transform="translate(204.824 72.971)" fill="#9896df"></path><rect id="Rectangle_6367" data-name="Rectangle 6367" width="6.296" height="35.784" transform="translate(212.78 70.2)" fill="#706dc9"></rect><rect id="Rectangle_6368" data-name="Rectangle 6368" width="6.296" height="17.892" transform="translate(212.78 70.2)" fill="#d8d7fa"></rect></g></g><g id="Group_6403" data-name="Group 6403" transform="translate(1080.188 335.937)"><g id="Group_6402" data-name="Group 6402" clip-path="url(#clip-path-10)"><rect id="Rectangle_6370" data-name="Rectangle 6370" width="78.887" height="33.26" transform="translate(0 0)" fill="#d7dcf8"></rect></g></g><g id="Group_6405" data-name="Group 6405" transform="translate(1080.188 345.934)"><g id="Group_6404" data-name="Group 6404" clip-path="url(#clip-path-11)"><path id="Path_12506" data-name="Path 12506" d="M0,0H78.887V23.263H0Z" transform="translate(0 0)" fill="#bac3f1"></path></g></g><g id="Group_6407" data-name="Group 6407" transform="translate(940 213.501)"><g id="Group_6538" data-name="Group 6538"><rect id="Rectangle_6372" data-name="Rectangle 6372" width="1.632" height="0.948" transform="translate(141.173 158.512)" fill="#807dfb"></rect><rect id="Rectangle_6373" data-name="Rectangle 6373" width="1.632" height="0.948" transform="translate(146.551 158.512)" fill="#807dfb"></rect><rect id="Rectangle_6374" data-name="Rectangle 6374" width="1.632" height="0.948" transform="translate(151.928 158.512)" fill="#807dfb"></rect><rect id="Rectangle_6375" data-name="Rectangle 6375" width="1.632" height="0.948" transform="translate(157.306 158.512)" fill="#807dfb"></rect><rect id="Rectangle_6376" data-name="Rectangle 6376" width="1.632" height="0.948" transform="translate(162.684 158.512)" fill="#807dfb"></rect><rect id="Rectangle_6377" data-name="Rectangle 6377" width="1.632" height="0.948" transform="translate(168.061 158.512)" fill="#807dfb"></rect><rect id="Rectangle_6378" data-name="Rectangle 6378" width="1.632" height="0.948" transform="translate(173.439 158.512)" fill="#807dfb"></rect><rect id="Rectangle_6379" data-name="Rectangle 6379" width="1.632" height="0.948" transform="translate(178.816 158.512)" fill="#807dfb"></rect><rect id="Rectangle_6380" data-name="Rectangle 6380" width="1.632" height="0.948" transform="translate(184.194 158.512)" fill="#807dfb"></rect><rect id="Rectangle_6381" data-name="Rectangle 6381" width="1.632" height="0.948" transform="translate(189.572 158.512)" fill="#807dfb"></rect><rect id="Rectangle_6382" data-name="Rectangle 6382" width="1.632" height="0.948" transform="translate(194.949 158.512)" fill="#807dfb"></rect><rect id="Rectangle_6383" data-name="Rectangle 6383" width="1.632" height="0.948" transform="translate(200.327 158.512)" fill="#807dfb"></rect><rect id="Rectangle_6384" data-name="Rectangle 6384" width="1.632" height="0.948" transform="translate(205.705 158.512)" fill="#807dfb"></rect><rect id="Rectangle_6385" data-name="Rectangle 6385" width="1.632" height="0.948" transform="translate(211.082 158.512)" fill="#807dfb"></rect><rect id="Rectangle_6386" data-name="Rectangle 6386" width="1.632" height="0.948" transform="translate(216.46 158.512)" fill="#807dfb"></rect><path id="Path_12263" data-name="Path 12263" d="M824.97,562.715a.237.237,0,0,1-.237-.237V532.222a.237.237,0,0,1,.474,0v30.256a.237.237,0,0,1-.237.237" transform="translate(-629.205 -405.862)" fill="#20196f"></path><path id="Path_12264" data-name="Path 12264" d="M819.448,512.469l-1.953-3.578H821.4Z" transform="translate(-623.682 -388.243)" fill="#20196f"></path><path id="Path_12265" data-name="Path 12265" d="M223.22,310.7a8.73,8.73,0,1,0,8.73,8.73,8.73,8.73,0,0,0-8.73-8.73m0,14.1a5.372,5.372,0,1,1,5.372-5.372,5.372,5.372,0,0,1-5.372,5.372" transform="translate(-163.639 -237.043)" fill="#d8d7fa"></path><path id="Path_12266" data-name="Path 12266" d="M253.66,309.237l2.2-4.527a10.354,10.354,0,0,0-4.547-1.045v5.026a5.342,5.342,0,0,1,2.346.545" transform="translate(-191.732 -231.673)" fill="#807ecd"></path><path id="Path_12267" data-name="Path 12267" d="M334.968,310.7a8.73,8.73,0,1,0,8.73,8.73,8.73,8.73,0,0,0-8.73-8.73m0,14.1a5.372,5.372,0,1,1,5.372-5.372,5.372,5.372,0,0,1-5.372,5.372" transform="translate(-248.893 -237.043)" fill="#d8d7fa"></path><path id="Path_12268" data-name="Path 12268" d="M368.015,311.984l4.636-1.946a10.4,10.4,0,0,0-9.59-6.372v5.027a5.373,5.373,0,0,1,4.954,3.292" transform="translate(-276.986 -231.673)" fill="#807ecd"></path><path id="Path_12269" data-name="Path 12269" d="M437.986,319.433a8.73,8.73,0,1,0,8.73-8.73,8.73,8.73,0,0,0-8.73,8.73m3.358,0a5.372,5.372,0,1,1,5.372,5.372,5.372,5.372,0,0,1-5.372-5.372" transform="translate(-334.148 -237.042)" fill="#d8d7fa"></path><path id="Path_12270" data-name="Path 12270" d="M457.069,314.063a5.368,5.368,0,0,1-9.081,3.881l-3.474,3.635a10.4,10.4,0,1,0,7.183-17.915v5.027a5.372,5.372,0,0,1,5.372,5.372" transform="translate(-339.128 -231.672)" fill="#807ecd"></path><path id="Path_12271" data-name="Path 12271" d="M216.322,419.719h-3.358a.474.474,0,1,1,0-.948h3.358a.474.474,0,1,1,0,.948" transform="translate(-162.113 -319.489)" fill="#807dfb" opacity="0.35"></path><path id="Path_12272" data-name="Path 12272" d="M248.671,419.719h-11.79a.474.474,0,0,1,0-.948h11.79a.474.474,0,0,1,0,.948" transform="translate(-180.359 -319.489)" fill="#807dfb" opacity="0.35"></path><path id="Path_12273" data-name="Path 12273" d="M230.424,430.552h-17.46a.474.474,0,1,1,0-.948h17.46a.474.474,0,0,1,0,.948" transform="translate(-162.113 -327.754)" fill="#807dfb" opacity="0.35"></path><path id="Path_12274" data-name="Path 12274" d="M328.071,419.719h-3.358a.474.474,0,0,1,0-.948h3.358a.474.474,0,0,1,0,.948" transform="translate(-247.368 -319.489)" fill="#807dfb" opacity="0.35"></path><path id="Path_12275" data-name="Path 12275" d="M353.329,419.719h-4.7a.474.474,0,0,1,0-.948h4.7a.474.474,0,1,1,0,.948" transform="translate(-265.614 -319.489)" fill="#807dfb" opacity="0.35"></path><path id="Path_12276" data-name="Path 12276" d="M381.273,419.719h-5.309a.474.474,0,0,1,0-.948h5.309a.474.474,0,0,1,0,.948" transform="translate(-286.468 -319.489)" fill="#807dfb" opacity="0.35"></path><path id="Path_12277" data-name="Path 12277" d="M339.194,430.552H324.714a.474.474,0,0,1,0-.948h14.479a.474.474,0,1,1,0,.948" transform="translate(-247.369 -327.754)" fill="#807dfb" opacity="0.35"></path><path id="Path_12278" data-name="Path 12278" d="M446.9,419.719h-3.358a.474.474,0,1,1,0-.948H446.9a.474.474,0,0,1,0,.948" transform="translate(-338.025 -319.489)" fill="#807dfb" opacity="0.35"></path><path id="Path_12279" data-name="Path 12279" d="M477.57,419.719H467.459a.474.474,0,1,1,0-.948H477.57a.474.474,0,1,1,0,.948" transform="translate(-356.272 -319.489)" fill="#807dfb" opacity="0.35"></path><path id="Path_12280" data-name="Path 12280" d="M453.921,430.552h-17.46a.474.474,0,0,1,0-.948h17.46a.474.474,0,1,1,0,.948" transform="translate(-332.623 -327.754)" fill="#807dfb" opacity="0.35"></path><path id="Path_12281" data-name="Path 12281" d="M263.31,525.521,247.124,507.7l-10.718,7.826-11.291-6.093-8.663,3.358-.1-.054-13.862-7.755.231-.414,13.765,7.7,8.658-3.357,11.221,6.055,10.821-7.9.143.158,16.079,17.706,14.239-7.758.227.417Z" transform="translate(-154.485 -384.943)" fill="#e1e0fe"></path><path id="Path_12282" data-name="Path 12282" d="M197.818,501.5a1.224,1.224,0,1,1,1.224,1.224,1.224,1.224,0,0,1-1.224-1.224" transform="translate(-150.919 -381.67)" fill="#d9d8fe"></path><path id="Path_12283" data-name="Path 12283" d="M256.288,534.209a1.224,1.224,0,1,1,1.224,1.224,1.224,1.224,0,0,1-1.224-1.224" transform="translate(-195.527 -406.625)" fill="#d9d8fe"></path><path id="Path_12284" data-name="Path 12284" d="M292.818,520.047a1.224,1.224,0,1,1,1.224,1.224,1.224,1.224,0,0,1-1.224-1.224" transform="translate(-223.397 -395.821)" fill="#d9d8fe"></path><path id="Path_12285" data-name="Path 12285" d="M336.432,542.719a2.14,2.14,0,1,1,2.14,2.14,2.14,2.14,0,0,1-2.14-2.14" transform="translate(-256.671 -412.419)" fill="#a09ccc"></path><path id="Path_12286" data-name="Path 12286" d="M385.721,512.5a1.224,1.224,0,1,1,1.224,1.224,1.224,1.224,0,0,1-1.224-1.224" transform="translate(-294.274 -390.062)" fill="#d9d8fe"></path><path id="Path_12287" data-name="Path 12287" d="M454.068,587.764a1.224,1.224,0,1,1,1.224,1.224,1.224,1.224,0,0,1-1.224-1.224" transform="translate(-346.417 -447.483)" fill="#d9d8fe"></path><path id="Path_12288" data-name="Path 12288" d="M514.818,554.665a1.224,1.224,0,1,1,1.224,1.224,1.224,1.224,0,0,1-1.224-1.224" transform="translate(-392.765 -422.232)" fill="#d9d8fe"></path><path id="Path_12289" data-name="Path 12289" d="M461.682,623.552h-6.9a.474.474,0,1,1,0-.948h6.9a.474.474,0,1,1,0,.948" transform="translate(-346.604 -474.997)" fill="#ced3f8"></path><path id="Path_12290" data-name="Path 12290" d="M504.916,623.552H495.1a.474.474,0,1,1,0-.948h9.819a.474.474,0,1,1,0,.948" transform="translate(-377.357 -474.997)" fill="#ced3f8"></path><path id="Path_12291" data-name="Path 12291" d="M457.417,647.679H443.542a.474.474,0,1,1,0-.948h13.875a.474.474,0,1,1,0,.948" transform="translate(-338.025 -493.404)" fill="#ced3f8"></path><path id="Path_12292" data-name="Path 12292" d="M518.8,647.679h-5.506a.474.474,0,1,1,0-.948H518.8a.474.474,0,1,1,0,.948" transform="translate(-391.238 -493.404)" fill="#ced3f8"></path><path id="Path_12293" data-name="Path 12293" d="M447.78,671.806h-4.239a.474.474,0,1,1,0-.948h4.239a.474.474,0,1,1,0,.948" transform="translate(-338.024 -511.811)" fill="#ced3f8"></path><path id="Path_12294" data-name="Path 12294" d="M485.008,671.806H472.646a.474.474,0,1,1,0-.948h12.362a.474.474,0,1,1,0,.948" transform="translate(-360.229 -511.811)" fill="#ced3f8"></path><path id="Path_12295" data-name="Path 12295" d="M465.583,635.617H443.541a.474.474,0,1,1,0-.948h22.042a.474.474,0,1,1,0,.948" transform="translate(-338.024 -484.202)" fill="#ced3f8"></path><path id="Path_12296" data-name="Path 12296" d="M465.583,659.744H443.541a.474.474,0,1,1,0-.948h22.042a.474.474,0,1,1,0,.948" transform="translate(-338.024 -502.609)" fill="#ced3f8"></path><path id="Path_12297" data-name="Path 12297" d="M509.468,490.548a4.149,4.149,0,1,0-4.149,4.149,4.149,4.149,0,0,0,4.149-4.149" transform="translate(-382.352 -371.084)" fill="#ced3f8"></path><path id="Path_12298" data-name="Path 12298" d="M511.766,495.57a1.182,1.182,0,1,1,1.3,0c1.22.3,1.295,1.177,1.295,2.187h-3.888c0-1.01.122-1.885,1.294-2.187" transform="translate(-389.449 -376.425)" fill="#fff"></path><path id="Path_12299" data-name="Path 12299" d="M105.771,995.262c0-1.64,10.866-2.969,24.27-2.969s24.27,1.329,24.27,2.969-10.866,2.969-24.27,2.969-24.27-1.329-24.27-2.969" transform="translate(-80.695 -757.04)" fill="#e9edf7"></path><path id="Path_12302" data-name="Path 12302" d="M178.129,672.242c-1.577,2.14-7.72,13.561-9.114,15.642.414,3.264,3.468,11.557,3.468,11.557s-.393,3.8.958,4.751,1.812.583,2.033.424c.526-.377-.825-3.453-.177-3.75.5-.084.946-.145,1.139-.171-.968-.6-.683-1.213-1.317-1.823-1.069-1.03-2.706-8.6-2.673-10.094,1.607-2.907,5.879-8.065,7.651-10.116s-1.969-6.42-1.969-6.42" transform="translate(-128.945 -512.867)" fill="#f8d8d0"></path></g></g><g id="Group_6416" data-name="Group 6416" transform="translate(940 213.501)"><g id="Group_6415" data-name="Group 6415" clip-path="url(#clip-path-4)"><g id="Group_6414" data-name="Group 6414" transform="translate(58.201 162.364)" style="mix-blend-mode: multiply;isolation: isolate"><g id="Group_6413" data-name="Group 6413"><g id="Group_6412" data-name="Group 6412" clip-path="url(#clip-path-13)"><g id="Group_6411" data-name="Group 6411" transform="translate(0)"><g id="Group_6410" data-name="Group 6410" clip-path="url(#clip-path-14)"><rect id="Rectangle_6389" data-name="Rectangle 6389" width="12.187" height="49.487" transform="translate(-0.383)" fill="url(#linear-gradient)"></rect></g></g></g></g></g></g></g><g id="Group_6427" data-name="Group 6427" transform="translate(940 213.501)"><g id="Group_6426" data-name="Group 6426" clip-path="url(#clip-path-4)"><g id="Group_6425" data-name="Group 6425" transform="translate(195.173 22.439)" style="mix-blend-mode: multiply;isolation: isolate"><g id="Group_6424" data-name="Group 6424"><g id="Group_6423" data-name="Group 6423" clip-path="url(#clip-path-16)"><g id="Group_6422" data-name="Group 6422" transform="translate(0 0.001)"><g id="Group_6421" data-name="Group 6421" clip-path="url(#clip-path-17)"><rect id="Rectangle_6394" data-name="Rectangle 6394" width="2.308" height="18.079" transform="translate(-0.077 -0.771)" fill="url(#linear-gradient-2)"></rect></g></g></g></g></g></g></g><rect id="Rectangle_6399" data-name="Rectangle 6399" width="324.559" height="277.048" transform="translate(940 205.5)" fill="none"></rect><g id="Group_6536" data-name="Group 6536" transform="translate(-6 12.156)"><g id="Group_6534" data-name="Group 6534" transform="translate(1009.23 224.11)"><path id="Path_12510-2" data-name="Path 12510" d="M13.987,0A13.987,13.987,0,1,1,0,13.987,13.987,13.987,0,0,1,13.987,0Z" transform="translate(0 0)" fill="#6660ad"></path></g><g id="google_1_" data-name="google (1)" transform="translate(1013.7 228.579)"><path id="Path_12519" data-name="Path 12519" d="M275.085,213.9H267.32a.619.619,0,0,0-.62.62V217a.619.619,0,0,0,.62.62h4.374a5.83,5.83,0,0,1-2.511,2.943l1.863,3.228a9.335,9.335,0,0,0,4.757-8.161,6.424,6.424,0,0,0-.106-1.219A.627.627,0,0,0,275.085,213.9Z" transform="translate(-256.766 -206.037)" fill="#d7dbf3"></path><path id="Path_12520" data-name="Path 12520" d="M62.638,328.4a5.792,5.792,0,0,1-5.01-2.9L54.4,327.359a9.509,9.509,0,0,0,13,3.489v0l-1.863-3.228a5.743,5.743,0,0,1-2.9.783Z" transform="translate(-53.12 -313.088)" fill="#bcc4ef"></path><path id="Path_12521" data-name="Path 12521" d="M261.257,380.633v0l-1.863-3.228a5.758,5.758,0,0,1-2.894.783v3.726A9.476,9.476,0,0,0,261.257,380.633Z" transform="translate(-246.982 -362.872)" fill="#b3bae2"></path><path id="Path_12522" data-name="Path 12522" d="M26.726,142.653a5.758,5.758,0,0,1,.783-2.894L24.28,137.9a9.465,9.465,0,0,0,0,9.506l3.228-1.859A5.717,5.717,0,0,1,26.726,142.653Z" transform="translate(-23 -133.135)" fill="#a4b0ef"></path><path id="Path_12523" data-name="Path 12523" d="M62.638,24.726a5.768,5.768,0,0,1,3.677,1.321.619.619,0,0,0,.832-.037L68.9,24.253a.624.624,0,0,0-.037-.913A9.487,9.487,0,0,0,54.4,25.765l3.228,1.859A5.792,5.792,0,0,1,62.638,24.726Z" transform="translate(-53.12 -21)" fill="#8d9cec"></path><path id="Path_12524" data-name="Path 12524" d="M260.177,26.046a.619.619,0,0,0,.832-.037l1.757-1.757a.624.624,0,0,0-.037-.913A9.459,9.459,0,0,0,256.5,21v3.726A5.745,5.745,0,0,1,260.177,26.046Z" transform="translate(-246.982 -21)" fill="#7d8cd4"></path></g></g><g id="_-_The_Brains-3" data-name="- The Brains-3" transform="translate(949.075 306.101)"><path id="Path_629" data-name="Path 629" d="M9.279,0A9.279,9.279,0,1,1,0,9.279,9.279,9.279,0,0,1,9.279,0Z" fill="#9f9cff"></path><g id="Group_312" data-name="Group 312" transform="translate(5.169 4.019)" opacity="0.67"><g id="Group_234" data-name="Group 234" transform="translate(0 0)"><g id="Group_227" data-name="Group 227" transform="translate(0.113 8.472)"><path id="Path_546" data-name="Path 546" d="M5450.777,3215.967a.235.235,0,0,1-.235-.235v-.872a.235.235,0,1,1,.47,0v.872A.235.235,0,0,1,5450.777,3215.967Z" transform="translate(-5450.542 -3214.624)" fill="#fff" stroke="#fff" stroke-width="0.3"></path></g><g id="Group_228" data-name="Group 228" transform="translate(2.566 7.344)"><path id="Path_547" data-name="Path 547" d="M5577.887,3158.94a.235.235,0,0,1-.235-.235v-2a.235.235,0,1,1,.47,0v2a.236.236,0,0,1-.236.235Z" transform="translate(-5577.652 -3156.472)" fill="#fff" stroke="#fff" stroke-width="0.3"></path></g><g id="Group_229" data-name="Group 229" transform="translate(5.023 5.765)"><path id="Path_548" data-name="Path 548" d="M5705.007,3078.8a.236.236,0,0,1-.236-.235v-3.576a.236.236,0,0,1,.472,0v3.576A.237.237,0,0,1,5705.007,3078.8Z" transform="translate(-5704.771 -3074.758)" fill="#fff" stroke="#fff" stroke-width="0.3"></path></g><g id="Group_230" data-name="Group 230" transform="translate(7.474)"><path id="Path_549" data-name="Path 549" d="M5832.117,2786.007a.235.235,0,0,1-.235-.235v-9.343a.235.235,0,0,1,.471,0v9.343A.236.236,0,0,1,5832.117,2786.007Z" transform="translate(-5831.882 -2776.194)" fill="#fff" stroke="#fff" stroke-width="0.3"></path></g><g id="Group_233" data-name="Group 233" transform="translate(0 0.218)"><g id="Group_231" data-name="Group 231" transform="translate(0 0.555)"><path id="Path_550" data-name="Path 550" d="M5444.953,2821.738a.229.229,0,0,1,0-.458,4.641,4.641,0,0,0,4.49-4.771.229.229,0,0,1,.458,0,5.351,5.351,0,0,1-1.445,3.692A4.787,4.787,0,0,1,5444.953,2821.738Z" transform="translate(-5444.725 -2816.281)" fill="#fff" stroke="#fff" stroke-width="0.3"></path></g><g id="Group_232" data-name="Group 232" transform="translate(3.188 0)"><path id="Path_551" data-name="Path 551" d="M5612.624,2790.327a.228.228,0,0,1-.206-.132l-.854-1.809-1.3,1.726a.229.229,0,0,1-.365-.275l1.758-2.33,1.175,2.494a.224.224,0,0,1-.014.219.226.226,0,0,1-.192.107Z" transform="translate(-5609.852 -2787.507)" fill="#fff" stroke="#fff" stroke-width="0.3"></path></g></g></g></g></g><path id="Path_4580" data-name="Path 4580" d="M7.219,0A7.219,7.219,0,1,1,0,7.219,7.219,7.219,0,0,1,7.219,0Z" transform="translate(1036 469)" fill="#6a65b0"></path><g id="Mask_Group_64" data-name="Mask Group 64" transform="translate(1039.339 472.397)" clip-path="url(#clip-path-18)"><g id="adwords_1_" data-name="adwords (1)" transform="translate(0.156 0.304)"><path id="Path_12525" data-name="Path 12525" d="M4.188,1.313A1.051,1.051,0,0,0,2.75,1.7L.141,6.227A1.053,1.053,0,1,0,1.964,7.281L4.573,2.754a1.056,1.056,0,0,0-.385-1.441Z" transform="translate(0 -1.172)" fill="#bcbaf7"></path><path id="Path_12526" data-name="Path 12526" d="M6.195,1.313A1.047,1.047,0,0,0,5.448,1.2a1.055,1.055,0,0,1,.69,1.558L3.529,7.282a1.05,1.05,0,0,1-.691.5,1.052,1.052,0,0,0,1.133-.5L6.58,2.754A1.056,1.056,0,0,0,6.195,1.313Z" transform="translate(-2.007 -1.172)" fill="#a9a7e0"></path><ellipse id="Ellipse_451" data-name="Ellipse 451" cx="1.051" cy="1.053" rx="1.051" ry="1.053" transform="translate(0 4.53)" fill="#d8d7fa"></ellipse><path id="Path_12527" data-name="Path 12527" d="M2.838,20.375h0a1.054,1.054,0,0,0,1.206-1.4l-.515.893A1.05,1.05,0,0,1,2.838,20.375Z" transform="translate(-2.006 -13.762)" fill="#c4c3e3"></path><path id="Path_12528" data-name="Path 12528" d="M13.48,6.227,10.871,1.7A1.053,1.053,0,1,0,9.048,2.754l2.609,4.528A1.053,1.053,0,1,0,13.48,6.227Z" transform="translate(-6.297 -1.172)" fill="#9390f6"></path><path id="Path_12529" data-name="Path 12529" d="M15.487,6.227,12.877,1.7a1.052,1.052,0,0,0-1.133-.5,1.05,1.05,0,0,1,.691.5l2.609,4.528a1.055,1.055,0,0,1-.69,1.558,1.054,1.054,0,0,0,1.132-1.558Z" transform="translate(-8.304 -1.172)" fill="#8380dc"></path></g></g><path id="Path_4580-2" data-name="Path 4580" d="M7.219,0A7.219,7.219,0,1,1,0,7.219,7.219,7.219,0,0,1,7.219,0Z" transform="translate(1235.5 241.034)" fill="#6a65b0"></path><path id="bing_2_" data-name="bing (2)" d="M41.949,1.872l.768,1.765,1.047.419L39.793,6.262,41.487,4.53V.708L39.746,0V6.31l1.762,1.076,4.179-2.5V3.159Z" transform="translate(1200.688 244.56)" fill="#bcbaf7"></path><g id="Group_6537" data-name="Group 6537" transform="translate(-8612.462 -570.599)"><path id="Path_10422" data-name="Path 10422" d="M154.57,1026.209c0-1.739,13.019-3.148,29.079-3.148s29.08,1.409,29.08,3.148-13.019,3.149-29.08,3.149-29.079-1.41-29.079-3.149" transform="translate(9407.001 12.512)" fill="rgba(54,46,148,0.06)"></path><path id="Path_10490" data-name="Path 10490" d="M204.379,730.508c-4.248,2.453-12.7,8.712-14.929,9.041-2.2.324-7.889-6.656-9.7-9.338a11.178,11.178,0,0,1-2.039,1.048c.785,1.833,6.7,13.216,10.325,13.426s9.673-1.917,13.186-3.681,3.161-10.5,3.161-10.5" transform="translate(9390.908 216.206)" fill="#7875ea"></path><path id="Path_10491" data-name="Path 10491" d="M168.972,713.126c-1.2-1.108-.6-2.586-1.485-3.909s-.994-1.527-1.229-1.245.776,2.008.468,1.922c-.528-.146-1.954-3.927-2.53-3.875-.4.036.616,2.364,1.209,3.379-.959-.327-1.711-4.056-2.2-3.73-.33.218.568,3.391,1.5,4.169-.9-.286-1.68-3.484-2.19-3.357-.411.1.525,2.987,1.354,3.727-.766-.419-1.3-1.941-1.589-1.741-.36.247.933,2.577,2.348,4.189,1.118,1.275,1.475.826,2.307,1.519a5.648,5.648,0,0,0,2.039-1.047" transform="translate(9401.682 233.29)" fill="#f8d8d0"></path><path id="Path_10492" data-name="Path 10492" d="M176.04,730.664s2.8-1.427,2.974-1.547c.451.464,1.157,1.631,1.212,1.642-.48.34-3.27,2.1-3.368,2.082-.173-.266-.818-2.178-.818-2.178" transform="translate(9392.067 216.966)" fill="#c8cdf7"></path><path id="Path_10493" data-name="Path 10493" d="M252.5,754.975c-1.192-7.285-1.29-12.261,2.428-19.292,1.309-2.476.04-7.753-2.433-8.681a7.756,7.756,0,0,0-7.251.921c-3.193,2.214-8.86,8.26-8.786,9.628.135,2.506,1.974,3.5,1.245,9.359-.4,3.207-.949,8.064-.949,8.064Z" transform="translate(9350.046 218.789)" fill="#9f9cff"></path><path id="Path_10494" data-name="Path 10494" d="M257.42,690.669a4.1,4.1,0,0,0,.893-4.268c-.5-.71-2.793-.14-3.364-1.21a14.852,14.852,0,0,1-1.224-6.6c.146-3.419,1.176-5.728,4.964-5.5a5.555,5.555,0,0,1,5.339,5.482c.182,3.459-1.568,6.987-1.327,8.187a2.229,2.229,0,0,0,1.142,1.6s-.828,3.011-6.424,2.314" transform="translate(9338.041 255.946)" fill="#f7d3c9"></path><path id="Path_10495" data-name="Path 10495" d="M266.079,678.563c-.4,2.924,3.964,4.668,7.555,6.75,3.983,2.309,9.49,7,10.391,14.338.377,3.406-4.547,5.567-7.787,4.9-3.155-.649-3.446,1.184-5.943,1.842-8.932.368.091-7.872.837-14s-5.022-4.228-7.653-7.072c-1.846-1.994-.135-3.423-1.315-5.557a5.34,5.34,0,0,0-4.269-3.023,4.157,4.157,0,0,1-3.186-3.852.983.983,0,0,1,.183-.878c2.17-4.9,12.6-3.694,11.187,6.548" transform="translate(9337.367 258.618)" fill="#362e94"></path><path id="Path_10496" data-name="Path 10496" d="M258.526,684.068c3.408-1.02,3.149,3.323,4.473,3.347,2.587.046-1.086,3.746.868,5.731,2.785,2.832,8.864.934,8.083,7.031s-9.271,13.254-.863,13.9c-2.288.466-4.047.358-5.485-1.881-3.585-5.581,6.162-10.375,1.116-13.789-4.567-3.09-6.257-4.483-5.431-8.13.738-3.258-.85-1.93-1.9-4.162-.465-.987-2.132.049-3.143-.9a5.242,5.242,0,0,1-1.651-4.634c.3,1.816,1.932,4.079,3.936,3.479" transform="translate(9337.474 250.72)" fill="#362e94"></path><g id="Group_6294" data-name="Group 6294" transform="translate(9563.791 922.285)"><path id="Path_10497" data-name="Path 10497" d="M239.07,698.153c.252.112.187.812-.146,1.564s-.808,1.27-1.06,1.159l-1.429-.633,1.206-2.723Z" transform="translate(-213.732 -683.342)" fill="#9e9ecc"></path><path id="Path_10498" data-name="Path 10498" d="M209.178,678.685l7.11,3.149c.652.289.483,2.1-.378,4.041s-2.087,3.284-2.739,3l-7.11-3.15c-.652-.289-.483-2.1.378-4.041s2.086-3.284,2.739-3" transform="translate(-192.329 -670.213)" fill="#9796de"></path><path id="Path_10499" data-name="Path 10499" d="M180.482,660.848c.435.193.322,1.4-.252,2.7s-1.392,2.191-1.827,2l-12.711.04,6.066-14.026Z" transform="translate(-164.526 -651.372)" fill="#bfc0f8"></path><path id="Path_10500" data-name="Path 10500" d="M168.126,659.1c1.719-3.882,2.057-7.5.755-8.073s-3.751,2.1-5.471,5.984-2.057,7.5-.755,8.073,3.752-2.1,5.471-5.984" transform="translate(-161.863 -650.949)" fill="#adade4"></path><path id="Path_10501" data-name="Path 10501" d="M178.125,670.527a22.53,22.53,0,0,1-1.808,4.082,2.235,2.235,0,0,1,1.808-4.082" transform="translate(-171.059 -664.462)" fill="#8886c8"></path><path id="Path_10502" data-name="Path 10502" d="M234.608,690.31c.684-1.754.779-3.3.181-3.565l.515.228c.6.265.5,1.811-.181,3.564Z" transform="translate(-212.461 -675.847)" fill="#7976c2"></path><path id="Path_10503" data-name="Path 10503" d="M230.96,688.7c.684-1.754.779-3.3.181-3.564l.514.228c.6.265.5,1.81-.181,3.565Z" transform="translate(-209.924 -674.725)" fill="#7976c2"></path><path id="Path_10504" data-name="Path 10504" d="M227.312,687.079c.685-1.754.779-3.3.181-3.565l.515.228c.6.265.5,1.81-.181,3.565Z" transform="translate(-207.387 -673.6)" fill="#7976c2"></path><path id="Path_10505" data-name="Path 10505" d="M223.665,685.463c.684-1.754.779-3.3.181-3.565l.514.228c.6.265.5,1.811-.181,3.564Z" transform="translate(-204.85 -672.476)" fill="#7976c2"></path><path id="Path_10506" data-name="Path 10506" d="M211.452,707.442c-.569,1.284-3.09,5.569-4.631,6.458l-1.49-.66c-.25-.111-.423-.32-.1-.641a35.265,35.265,0,0,0,3.35-6.427l2.868,1.27" transform="translate(-191.906 -689.36)" fill="#9f9dcc"></path></g><path id="Path_10507" data-name="Path 10507" d="M212.756,715.552s-2.918-1.278-2.875-2.9c.048-1.841.595-3.315.886-3.4.693-.2,1.936,3.161,2.643,2.8.145-.258.423-.637.57-.911a2.855,2.855,0,0,1,1.089,2.5c0,.807,1.031,2.4,1.827,6.35l-1.913,1.608a13.651,13.651,0,0,1-2.226-6.042" transform="translate(9368.53 230.792)" fill="#f8d8d0"></path><path id="Path_10508" data-name="Path 10508" d="M222.606,729.908a91.573,91.573,0,0,0,4.091,11.711c3.839-2.818,7.944-6.529,10.8-8.4,2.624-1.722,9.644,2.018-3.414,10.668-3.182,2.108-7.866,5.724-10.432,3.747-1.281-1.513-4.288-14.411-4.268-16.865Z" transform="translate(9361.923 216.416)" fill="#807dfb"></path><path id="Path_10509" data-name="Path 10509" d="M217.591,730.519s3.739-.957,3.974-1.055c.415.676.948,2.263,1.011,2.291-.666.278-4.477,1.639-4.589,1.59-.135-.365-.4-2.826-.4-2.826" transform="translate(9363.167 216.725)" fill="#dbdffd"></path><path id="Path_10510" data-name="Path 10510" d="M211.652,1026.235a1.107,1.107,0,0,1,.944.9h.716a3.914,3.914,0,0,0,.326-2.713c-.235-.96-.481-.729-.731-.48-.568.464-2.889.621-3.073-.16-.6.092-6.766,1.879-6.765,2.449,0,.924.727.921,1.221.919,5.837-.011,5.063-.368,7.363-.911" transform="translate(9373.269 12.055)" fill="#362e94"></path><path id="Path_10511" data-name="Path 10511" d="M218.19,1018.573c.2-.88,2.742-1.544,2.612,0a2.081,2.081,0,0,0,.135.979h0c-.568.63-5.88,2.116-6.758.978.611-.329,4.014-1.02,4.012-1.954" transform="translate(9365.54 16.278)" fill="#f7d3c9"></path><path id="Path_10512" data-name="Path 10512" d="M230.31,820.042c-3.117,23.178-3.117,45.448-3.117,60.918h2.745c.757-1.885,5.467-18.449,5.046-26.839,2.438-7.447,7.739-30.368,8.269-34.079Z" transform="translate(9356.487 153.723)" fill="#423eaf"></path><path id="Path_10513" data-name="Path 10513" d="M271.3,1025.8a1.107,1.107,0,0,1,.9.941l.715.034a3.916,3.916,0,0,0,.46-2.693c-.187-.971-.444-.753-.706-.515-.59.435-2.917.477-3.061-.312-.6.062-6.852,1.541-6.879,2.11-.044.923.68.955,1.174.979,5.83.279,5.075-.116,7.4-.544" transform="translate(9331.774 12.377)" fill="#362e94"></path><path id="Path_10514" data-name="Path 10514" d="M278.171,1018.032c.242-.869,2.4-1.544,2.473,0a3.853,3.853,0,0,0,.223,1.111h0c-.28.837-5.978,1.822-6.8.641.627-.3,4.06-.82,4.1-1.752" transform="translate(9323.884 16.651)" fill="#f7d3c9"></path><path id="Path_10515" data-name="Path 10515" d="M256.532,820.042c1.945,6.106.766,19.854.153,32.2,2.7,8.259,1.959,21.751,1.959,28.716H255.9c-1.542-3.835-12.6-53.622-13.643-60.918Z" transform="translate(9346.012 153.723)" fill="#5652cc"></path><path id="Path_10516" data-name="Path 10516" d="M131.251,650.934a.31.31,0,0,1-.144-.036l-13.094-7.06a.3.3,0,0,1,.289-.536l13.094,7.059a.3.3,0,0,1-.145.573" transform="translate(9432.539 276.68)" fill="#8e89c3"></path><path id="Path_10517" data-name="Path 10517" d="M156.613,637a.3.3,0,0,1-.261-.147l-4.451-7.392a.3.3,0,1,1,.522-.314l4.45,7.392a.3.3,0,0,1-.26.461" transform="translate(9408.887 286.603)" fill="#8e89c3"></path><path id="Path_10518" data-name="Path 10518" d="M125.922,678.6a.3.3,0,0,1-.02-.608l8.608-.581a.3.3,0,0,1,.324.283.3.3,0,0,1-.283.324l-8.608.581h-.021" transform="translate(9427.139 252.934)" fill="#8e89c3"></path></g></g></svg> 